<svg width="500" height="500" viewBox="0 0 500 500" fill="none" xmlns="http://www.w3.org/2000/svg">
<path d="M246.795 198.68H225.455L286.615 57H340.295L264.615 222H206.315L130.635 57H185.415L246.795 198.68ZM335.875 125.42H395.715V165.02H335.875V125.42Z" fill="black"/>
<path d="M63.5143 301.22H114.774V444H63.5143V301.22ZM2.3543 279H175.934V324.54H2.3543V279ZM173.715 414.3V373.38H286.795V414.3H173.715ZM265.015 279L338.935 444H284.155L224.315 301.22H238.175L178.115 444H123.555L197.255 279H265.015ZM498.582 373.82C496.822 388.487 491.688 401.393 483.182 412.54C474.822 423.687 463.675 432.34 449.742 438.5C435.955 444.66 420.115 447.74 402.222 447.74C382.862 447.74 365.922 444.147 351.402 436.96C336.881 429.773 325.588 419.727 317.521 406.82C309.455 393.913 305.421 378.807 305.421 361.5C305.421 344.193 309.455 329.087 317.521 316.18C325.588 303.273 336.881 293.227 351.402 286.04C365.922 278.853 382.862 275.26 402.222 275.26C420.115 275.26 435.955 278.34 449.742 284.5C463.675 290.66 474.822 299.313 483.182 310.46C491.688 321.46 496.822 334.367 498.582 349.18H447.102C445.635 342.873 442.922 337.52 438.962 333.12C435.148 328.573 430.162 325.127 424.001 322.78C417.841 320.287 410.581 319.04 402.222 319.04C392.835 319.04 384.768 320.727 378.021 324.1C371.275 327.473 366.068 332.387 362.401 338.84C358.735 345.147 356.902 352.7 356.902 361.5C356.902 370.3 358.735 377.853 362.401 384.16C366.068 390.467 371.275 395.38 378.021 398.9C384.768 402.273 392.835 403.96 402.222 403.96C410.581 403.96 417.841 402.86 424.001 400.66C430.162 398.313 435.148 394.867 438.962 390.32C442.922 385.773 445.635 380.273 447.102 373.82H498.582Z" fill="black"/>
</svg>
